<?xml version="1.0" encoding="UTF-8"?>
<svg width="65px" height="65px" viewBox="0 0 65 65" version="1.1" xmlns="http://www.w3.org/2000/svg" xmlns:xlink="http://www.w3.org/1999/xlink">
    <title>runtimeError</title>
    <defs>
        <filter id="filter-1">
            <feColorMatrix in="SourceGraphic" type="matrix" values="0 0 0 0 0.000000 0 0 0 0 0.533333 0 0 0 0 1.000000 0 0 0 1.000000 0"></feColorMatrix>
        </filter>
    </defs>
    <g id="Page-1" stroke="none" stroke-width="1" fill="none" fill-rule="evenodd">
        <g id="runtimeError" transform="translate(-333.000000, -341.000000)" filter="url(#filter-1)">
            <g transform="translate(333.000000, 341.000000)">
                <path d="M17.0822167,46.8795167 C17.0822167,47.7864833 17.8206167,48.5248833 18.7282333,48.5248833 L46.2713333,48.5248833 C47.17895,48.5248833 47.91735,47.7871333 47.91735,46.8795167 L47.91735,28.36405 L17.0822167,28.36405 L17.0822167,46.8795167 Z" id="Path" fill="#000000" fill-rule="nonzero"></path>
                <path d="M47.9167002,21.2398333 C47.9171333,20.3328667 47.1787333,19.5944667 46.2713333,19.5944667 L18.7282333,19.5944667 C17.8206167,19.5944667 17.0822167,20.3322167 17.0822167,21.2398333 L17.0822167,24.9925 L47.9167002,24.9925 L47.9167002,21.2398333 Z M22.1036833,23.67755 L19.9942167,23.67755 L19.9942167,21.4296333 L22.1036833,21.4296333 L22.1036833,23.67755 Z M25.9321833,23.67755 L23.8227167,23.67755 L23.8227167,21.4296333 L25.9321833,21.4296333 L25.9321833,23.67755 Z M29.76025,23.67755 L27.6507833,23.67755 L27.6507833,21.4296333 L29.76025,21.4296333 L29.76025,23.67755 Z" id="Shape" fill="#000000" fill-rule="nonzero"></path>
                <path d="M32.4991333,0 C14.5506833,0 0.000216666667,14.55155 0.000216666667,32.49935 C0.000216666667,50.44715 14.5506833,65 32.4991333,65 C50.4475833,65 64.9997833,50.4480167 64.9997833,32.49935 C64.9997833,14.5506833 50.4475833,0 32.4991333,0 Z M51.2889,46.8795167 C51.2889,49.6459167 49.0377333,51.89665 46.2713333,51.89665 L18.7282333,51.89665 C15.9618333,51.89665 13.7106667,49.6461333 13.7106667,46.8795167 L13.7106667,21.2398333 C13.7106667,18.4734333 15.9611833,16.2227 18.7282333,16.2227 L46.2713333,16.2227 C49.0377333,16.2227 51.2889,18.4732167 51.2889,21.2398333 L51.2889,46.8795167 Z" id="Shape" fill="#000000" fill-rule="nonzero"></path>
            </g>
        </g>
    </g>
</svg>